<svg xmlns="http://www.w3.org/2000/svg" width="477" height="92" viewBox="0 0 477 92" version="1.1"><path d="M 176.570 22.887 C 175.504 24.611, 160 61.435, 160 62.242 C 160 62.659, 161.482 63, 163.293 63 C 166.259 63, 166.741 62.577, 168.133 58.750 L 169.679 54.500 176.619 54.211 L 183.558 53.921 185.116 58.211 C 186.585 62.255, 186.918 62.518, 190.935 62.812 C 193.278 62.984, 194.974 62.759, 194.705 62.312 C 194.435 61.866, 190.519 52.725, 186.003 42 C 181.486 31.275, 177.658 22.358, 177.496 22.183 C 177.333 22.009, 176.917 22.326, 176.570 22.887 M 396.275 23.971 C 391.888 25.013, 388.659 27.269, 385.356 31.599 C 383.171 34.465, 382.494 36.578, 382.180 41.521 C 381.664 49.620, 383.183 54.029, 387.985 58.367 C 393.586 63.427, 400 64.987, 407 62.991 C 412.928 61.300, 413.504 60.631, 412.051 57.123 C 410.792 54.083, 410.760 54.073, 407.726 55.642 C 403.087 58.041, 396.498 56.959, 392.716 53.178 C 390.259 50.720, 389.600 49.118, 389.282 44.819 C 388.802 38.334, 391.219 33.817, 396.522 31.288 C 399.990 29.634, 403.334 29.927, 409.023 32.382 C 410.098 32.846, 410.878 32.162, 411.672 30.058 C 413.052 26.402, 412.205 25.516, 405.961 24.077 C 400.928 22.917, 400.721 22.915, 396.275 23.971 M 96.146 24.783 C 96.341 25.282, 99.875 34.529, 104 45.331 C 108.125 56.133, 111.725 64.970, 112 64.969 C 112.275 64.967, 113.603 62.386, 114.952 59.233 C 116.301 56.080, 118.500 51.073, 119.841 48.108 L 122.277 42.715 126.612 53.498 C 128.997 59.428, 131.124 64.457, 131.339 64.673 C 131.555 64.888, 134.905 56.613, 138.783 46.282 C 142.661 35.952, 146.145 26.712, 146.524 25.750 C 147.109 24.266, 146.626 24, 143.346 24 L 139.479 24 136.132 34.865 C 134.291 40.840, 132.465 46.247, 132.074 46.880 C 131.678 47.521, 129.248 42.708, 126.588 36.016 L 121.814 24 118.422 24 L 115.029 24 116.973 28.931 L 118.916 33.861 116.370 40.181 C 114.970 43.656, 113.488 46.854, 113.077 47.286 C 112.665 47.718, 110.520 42.768, 108.310 36.286 L 104.291 24.500 100.041 24.187 C 97.704 24.015, 95.951 24.283, 96.146 24.783 M 211 43.500 L 211 63 224 63 L 237 63 237 60 L 237 57 227.500 57 L 218 57 218 40.500 L 218 24 214.500 24 L 211 24 211 43.500 M 254 43.500 L 254 63 267.500 63 L 281 63 281 60 L 281 57 271 57 L 261 57 261 40.500 L 261 24 257.500 24 L 254 24 254 43.500 M 295.187 27.250 C 295.487 30.366, 295.695 30.513, 300.250 30.805 L 305 31.110 305 47.055 L 305 63 308.500 63 L 312 63 312 47.055 L 312 31.110 316.750 30.805 C 321.305 30.513, 321.513 30.366, 321.813 27.250 L 322.127 24 308.500 24 L 294.873 24 295.187 27.250 M 339 43.500 L 339 63 352.500 63 L 366 63 366 60 L 366 57 356 57 L 346 57 346 52 L 346 47 354.500 47 L 363 47 363 43.500 L 363 40 354.500 40 L 346 40 346 35.500 L 346 31 355.500 31 L 365 31 365 27.500 L 365 24 352 24 L 339 24 339 43.500 M 431 43.500 L 431 63 434.500 63 L 438 63 438 55 L 438 47 447.500 47 L 457 47 457 55 L 457 63 460.500 63 L 464 63 464 43.500 L 464 24 460.500 24 L 457 24 457 32 L 457 40 447.500 40 L 438 40 438 32 L 438 24 434.500 24 L 431 24 431 43.500 M 174.744 42.304 C 173.785 44.624, 173 46.854, 173 47.261 C 173 47.667, 174.796 48, 176.992 48 L 180.984 48 179.342 43.750 C 177.003 37.699, 176.690 37.600, 174.744 42.304" stroke="none" fill="#040404" fill-rule="evenodd"/><path d="M 14 22 L 14 30 18 30 C 21.905 30, 22 29.917, 22 26.500 L 22 23 30.500 23 L 39 23 39 43.500 L 39 64 30.500 64 L 22 64 22 49.500 L 22 35 18 35 L 14 35 14 54 L 14 73 43 73 L 72 73 72 54 L 72 35 68 35 L 64 35 64 49.500 L 64 64 55.750 64 L 47.500 64 47.500 43.500 L 47.500 23 55.750 23 L 64 23 64 26.500 C 64 29.917, 64.095 30, 68 30 L 72 30 72 22 L 72 14 43 14 L 14 14 14 22" stroke="none" fill="#d5b48c" fill-rule="evenodd"/></svg>